<?xml version="1.0" standalone="no"?>
<!DOCTYPE svg PUBLIC "-//W3C//DTD SVG 20010904//EN"
 "http://www.w3.org/TR/2001/REC-SVG-20010904/DTD/svg10.dtd">
<svg version="1.0" xmlns="http://www.w3.org/2000/svg"
 width="100.000000pt" height="100.000000pt" viewBox="0 0 100.000000 100.000000"
 preserveAspectRatio="xMidYMid meet">

<g transform="translate(0.000000,100.000000) scale(0.100000,-0.100000)"
fill="#000000" stroke="none">
<path d="M430 909 c-126 -21 -253 -118 -306 -233 -71 -156 -42 -336 75 -459
55 -58 143 -112 166 -103 10 3 15 20 15 46 0 40 0 40 -39 40 -32 0 -44 6 -65
31 -14 17 -26 37 -26 45 0 8 -9 23 -20 34 -16 16 -17 20 -4 20 8 0 32 -18 51
-40 50 -56 83 -55 112 2 11 23 19 42 18 43 -1 1 -21 9 -45 20 -54 23 -99 74
-108 121 -5 28 -1 49 16 88 13 28 24 71 25 96 3 92 2 91 33 84 15 -4 38 -14
52 -22 32 -21 207 -26 230 -7 19 15 81 37 88 30 3 -3 6 -33 7 -68 0 -39 7 -71
17 -87 57 -87 15 -197 -93 -240 -18 -7 -35 -15 -37 -16 -2 -1 4 -16 12 -33 11
-19 16 -56 16 -106 0 -91 11 -100 79 -64 147 76 241 267 213 428 -42 235 -252
388 -482 350z"/>
</g>
</svg>
